<?xml version="1.0" encoding="UTF-8" standalone="no"?>
<!DOCTYPE svg PUBLIC "-//W3C//DTD SVG 1.1//EN" "http://www.w3.org/Graphics/SVG/1.1/DTD/svg11.dtd">
<svg xmlns="http://www.w3.org/2000/svg" version="1.1" viewBox="0.00 0.00 450.00 554.00">
<g stroke-width="2.00" fill="none" stroke-linecap="butt">
<path stroke="#889298" vector-effect="non-scaling-stroke" d="
  M 407.44 83.08
  A 39.63 39.63 0.0 0 0 367.81 43.45
  L 84.97 43.45
  A 39.63 39.63 0.0 0 0 45.34 83.08
  L 45.34 467.04
  A 39.63 39.63 0.0 0 0 84.97 506.67
  L 367.81 506.67
  A 39.63 39.63 0.0 0 0 407.44 467.04
  L 407.44 83.08"
/>
<path stroke="#ebeff1" vector-effect="non-scaling-stroke" d="
  M 373.54 162.89
  Q 375.96 163.11 377.82 161.33
  Q 386.88 152.68 391.16 141.19
  Q 393.05 136.13 393.55 131.03
  C 394.83 117.99 393.22 106.89 386.01 95.40
  Q 385.49 94.58 384.69 95.08
  Q 384.63 95.12 383.77 95.04"
/>
<path stroke="#889298" vector-effect="non-scaling-stroke" d="
  M 383.77 95.04
  C 379.01 76.19 365.84 65.35 346.40 65.39
  Q 230.12 65.57 109.16 65.47
  Q 99.66 65.47 94.99 66.71
  C 79.99 70.71 69.98 84.56 69.83 100.20
  Q 69.69 114.76 69.61 133.61
  C 69.57 143.43 71.31 151.11 76.79 158.74
  Q 86.24 171.92 103.00 171.92
  Q 231.50 171.97 350.00 172.11
  Q 364.14 172.13 373.54 162.89"
/>
<path stroke="#748189" vector-effect="non-scaling-stroke" d="
  M 383.77 95.04
  Q 386.04 115.44 384.28 137.00
  Q 383.05 152.00 373.54 162.89"
/>
<path stroke="#ebeff1" vector-effect="non-scaling-stroke" d="
  M 104.23 333.41
  Q 104.49 337.04 107.55 339.23
  Q 129.53 354.93 156.22 348.39
  Q 169.27 345.19 179.92 335.40
  Q 186.12 329.69 189.76 324.33"
/>
<path stroke="#889298" vector-effect="non-scaling-stroke" d="
  M 189.76 324.33
  Q 197.32 329.85 205.71 332.94"
/>
<path stroke="#ebeff1" vector-effect="non-scaling-stroke" d="
  M 205.71 332.94
  Q 205.22 335.20 207.83 337.42
  Q 221.86 349.34 240.00 350.26
  Q 259.66 351.26 275.42 339.95
  Q 280.11 336.58 283.58 330.85"
/>
<path stroke="#889298" vector-effect="non-scaling-stroke" d="
  M 283.58 330.85
  L 289.73 333.77"
/>
<path stroke="#ebeff1" vector-effect="non-scaling-stroke" d="
  M 289.73 333.77
  Q 290.33 334.53 290.69 335.18
  Q 291.11 335.96 291.65 336.58
  C 294.80 340.18 300.38 342.64 304.66 344.80
  Q 312.32 348.67 321.51 349.57
  Q 348.24 352.19 368.35 334.90
  Q 386.66 319.15 390.60 294.15
  Q 394.37 270.26 381.90 250.93
  Q 379.36 247.00 379.01 246.57
  Q 377.13 244.31 374.44 243.68"
/>
<path stroke="#889298" vector-effect="non-scaling-stroke" d="
  M 374.44 243.68
  Q 366.35 224.92 349.41 212.63
  Q 327.62 196.82 301.60 200.70
  Q 282.34 203.57 270.19 215.41
  Q 269.69 215.90 269.15 215.44
  C 246.64 196.03 215.55 195.18 190.96 211.17
  Q 184.58 215.32 177.11 223.98
  Q 176.72 224.43 176.30 224.00
  C 166.24 213.54 153.99 204.89 139.64 201.65
  Q 120.82 197.39 103.41 203.89
  C 83.83 211.19 68.60 228.16 62.24 247.57
  Q 56.02 266.58 61.32 286.76
  C 64.33 298.21 71.93 310.43 80.79 318.82
  Q 89.30 326.87 94.76 329.22
  Q 99.57 331.29 104.23 333.41"
/>
<path stroke="#748189" vector-effect="non-scaling-stroke" d="
  M 374.44 243.68
  Q 376.55 249.39 377.16 251.34
  C 382.63 268.89 378.11 289.70 368.35 305.47
  C 351.51 332.69 319.99 342.04 289.73 333.77"
/>
<path stroke="#748189" vector-effect="non-scaling-stroke" d="
  M 283.58 330.85
  Q 275.56 327.21 269.34 321.67
  Q 268.86 321.25 268.41 321.70
  Q 257.64 332.52 240.02 335.50
  C 228.53 337.44 217.05 336.22 205.71 332.94"
/>
<path stroke="#748189" vector-effect="non-scaling-stroke" d="
  M 189.76 324.33
  Q 183.06 319.41 177.37 313.24
  A 0.67 0.66 -46.1 0 0 176.37 313.26
  C 169.07 321.99 160.50 328.71 149.70 332.46
  Q 127.21 340.28 104.23 333.41"
/>
<path stroke="#ebeff1" vector-effect="non-scaling-stroke" d="
  M 104.05 481.32
  Q 111.98 490.72 121.23 494.23
  Q 130.44 497.73 141.01 497.04
  Q 150.92 496.38 160.01 492.28
  Q 176.18 484.97 185.32 468.68"
/>
<path stroke="#889298" vector-effect="non-scaling-stroke" d="
  M 185.32 468.68
  Q 195.28 478.12 208.74 480.77"
/>
<path stroke="#ebeff1" vector-effect="non-scaling-stroke" d="
  M 208.74 480.77
  Q 211.00 484.99 215.69 488.30
  Q 223.98 494.15 232.38 495.91
  C 239.32 497.36 247.60 497.04 255.03 496.87
  C 265.42 496.63 276.23 496.93 286.34 496.89
  Q 309.64 496.80 330.78 497.03
  Q 344.50 497.18 350.66 495.87
  Q 370.80 491.59 382.04 475.59
  C 391.00 462.83 393.96 445.78 389.69 430.50
  Q 387.30 421.95 381.76 413.56
  Q 379.94 410.82 377.51 408.71
  Q 377.21 408.45 376.95 408.75
  Q 376.75 408.97 376.98 409.15
  Q 377.27 409.37 376.91 409.36
  Q 376.54 409.35 376.17 409.51"
/>
<path stroke="#889298" vector-effect="non-scaling-stroke" d="
  M 376.17 409.51
  C 369.10 391.99 354.90 379.05 336.44 375.06
  Q 331.30 373.95 327.00 373.95
  Q 277.61 373.93 230.99 373.78
  Q 216.64 373.74 211.07 374.77
  Q 184.65 379.67 172.66 404.84
  A 0.57 0.57 0.0 0 1 171.64 404.87
  C 168.69 399.41 165.27 394.07 160.82 389.70
  C 143.47 372.66 119.31 368.96 97.09 379.22
  Q 88.53 383.17 81.17 391.22
  Q 69.08 404.44 67.12 422.48
  C 65.00 441.92 72.82 459.85 87.85 472.33
  C 90.10 474.20 94.08 476.84 96.37 477.66
  Q 101.13 479.36 104.05 481.32"
/>
<path stroke="#748189" vector-effect="non-scaling-stroke" d="
  M 376.17 409.51
  Q 385.29 437.27 369.69 461.18
  Q 359.65 476.56 342.66 480.30
  Q 336.39 481.68 322.75 481.55
  C 288.57 481.23 254.42 481.30 220.25 481.75
  Q 215.39 481.81 208.74 480.77"
/>
<path stroke="#748189" vector-effect="non-scaling-stroke" d="
  M 185.32 468.68
  C 180.21 463.71 174.87 457.81 172.37 451.01
  Q 172.17 450.47 171.93 450.99
  C 165.05 465.81 154.89 475.92 138.76 480.92
  Q 127.47 484.42 114.90 482.89
  Q 110.14 482.31 104.05 481.32"
/>
<path stroke="#889298" vector-effect="non-scaling-stroke" d="
  M 104.48 94.16
  C 99.76 96.27 98.62 100.23 98.67 105.00
  Q 98.81 120.37 98.68 135.21
  C 98.64 140.34 102.88 143.94 107.87 143.92
  Q 188.34 143.59 271.59 143.84
  A 0.66 0.66 0.0 0 0 272.26 143.18
  L 272.00 93.51
  A 0.47 0.47 0.0 0 0 271.56 93.05
  Q 269.45 92.90 267.25 92.90
  Q 189.05 93.06 109.66 93.02
  Q 107.02 93.02 104.48 94.16"
/>
<path stroke="#889298" vector-effect="non-scaling-stroke" d="
  M 285.95 94.23
  L 286.21 143.07
  A 1.10 1.10 0.0 0 0 287.31 144.17
  L 344.83 143.86
  A 10.71 10.68 89.7 0 0 355.46 133.10
  L 355.30 103.48
  A 10.71 10.68 89.7 0 0 344.57 92.82
  L 287.05 93.13
  A 1.10 1.10 0.0 0 0 285.95 94.23"
/>
<path stroke="#889298" vector-effect="non-scaling-stroke" d="
  M 340.8560 119.7277
  A 9.12 8.73 96.7 0 0 350.5904 111.6885
  A 9.12 8.73 96.7 0 0 342.9840 101.6123
  A 9.12 8.73 96.7 0 0 333.2496 109.6515
  A 9.12 8.73 96.7 0 0 340.8560 119.7277"
/>
<path stroke="#889298" vector-effect="non-scaling-stroke" d="
  M 310.7040 119.6604
  A 9.05 8.79 96.0 0 0 320.3918 111.5788
  A 9.05 8.79 96.0 0 0 312.5960 101.6596
  A 9.05 8.79 96.0 0 0 302.9082 109.7412
  A 9.05 8.79 96.0 0 0 310.7040 119.6604"
/>
<path stroke="#889298" vector-effect="non-scaling-stroke" d="
  M 310.9307 141.3623
  A 9.15 8.79 95.2 0 0 320.5138 133.0467
  A 9.15 8.79 95.2 0 0 312.5893 123.1377
  A 9.15 8.79 95.2 0 0 303.0062 131.4533
  A 9.15 8.79 95.2 0 0 310.9307 141.3623"
/>
<path stroke="#889298" vector-effect="non-scaling-stroke" d="
  M 341.2354 141.4705
  A 9.16 8.68 94.6 0 0 350.6220 133.0361
  A 9.16 8.68 94.6 0 0 342.7046 123.2095
  A 9.16 8.68 94.6 0 0 333.3180 131.6439
  A 9.16 8.68 94.6 0 0 341.2354 141.4705"
/>
<path stroke="#889298" vector-effect="non-scaling-stroke" d="
  M 133.97 220.05
  C 106.72 214.11 81.64 235.99 78.45 262.74
  Q 75.68 286.00 90.95 301.90
  C 108.82 320.48 135.78 323.01 155.69 306.13
  Q 161.62 301.10 165.09 294.15
  A 1.78 1.76 47.3 0 0 165.14 292.68
  C 163.66 289.09 161.91 285.13 161.21 281.26
  Q 157.64 261.55 165.38 245.02
  A 1.77 1.76 42.8 0 0 165.31 243.39
  C 158.71 231.81 147.08 222.91 133.97 220.05"
/>
<path stroke="#889298" vector-effect="non-scaling-stroke" d="
  M 360.28 268.45
  A 49.16 49.16 0.0 0 0 311.12 219.29
  A 49.16 49.16 0.0 0 0 261.96 268.45
  A 49.16 49.16 0.0 0 0 311.12 317.61
  A 49.16 49.16 0.0 0 0 360.28 268.45"
/>
<path stroke="#889298" vector-effect="non-scaling-stroke" d="
  M 203.18 260.89
  A 0.84 0.83 7.4 0 1 202.37 259.84
  C 205.40 248.49 212.23 238.64 224.62 236.56
  Q 235.65 234.71 245.13 242.46
  A 0.90 0.90 0.0 0 0 246.53 242.12
  Q 249.49 235.12 253.97 229.14
  A 1.13 1.13 0.0 0 0 253.62 227.48
  C 248.91 224.84 243.71 222.07 238.52 220.85
  Q 218.79 216.23 203.44 227.85
  Q 187.77 239.71 185.31 260.04
  Q 185.23 260.72 184.55 260.72
  L 180.18 260.74
  A 0.95 0.95 0.0 0 0 179.24 261.70
  L 179.42 272.60
  Q 179.45 274.25 181.10 274.26
  L 184.21 274.28
  Q 184.88 274.29 184.95 274.95
  Q 187.12 295.76 201.53 307.32
  C 217.31 319.98 237.75 320.55 254.57 309.18
  Q 255.09 308.82 254.72 308.31
  Q 249.76 301.47 246.29 293.27
  Q 245.99 292.57 245.50 293.15
  Q 240.53 298.98 231.57 300.29
  C 216.16 302.56 204.37 288.58 201.81 275.01
  A 0.68 0.67 84.7 0 1 202.47 274.21
  L 241.25 274.20
  A 0.88 0.88 0.0 0 0 242.13 273.32
  L 242.20 261.25
  Q 242.20 260.79 241.75 260.79
  L 203.18 260.89"
/>
<path stroke="#889298" vector-effect="non-scaling-stroke" d="
  M 117.11 234.74
  C 108.27 235.40 99.04 242.89 99.32 252.25
  C 99.64 263.02 107.52 268.64 117.49 270.06
  C 122.72 270.80 136.56 271.52 136.18 279.56
  C 135.98 283.57 131.84 286.10 128.27 286.63
  Q 121.54 287.63 115.90 284.28
  C 114.05 283.18 112.09 282.14 110.27 280.99
  C 107.24 279.09 103.81 279.23 101.96 282.48
  C 97.41 290.47 111.33 295.81 117.16 296.99
  A 1.63 1.63 0.0 0 1 118.44 298.34
  C 118.74 300.42 118.44 302.76 119.36 304.65
  Q 121.08 308.16 124.66 307.93
  C 129.57 307.60 130.58 302.64 131.21 298.56
  A 1.81 1.80 -3.3 0 1 132.52 297.10
  Q 133.82 296.76 135.22 296.34
  C 143.63 293.81 148.83 286.94 148.66 278.26
  C 148.45 267.62 139.36 260.43 129.22 259.16
  C 124.59 258.57 118.87 259.21 114.88 256.68
  Q 109.63 253.34 114.20 248.87
  C 118.16 244.99 123.23 244.06 128.50 246.36
  Q 132.92 248.28 137.19 250.08
  C 143.88 252.90 146.09 244.79 142.49 240.57
  C 139.84 237.45 135.10 236.44 131.14 235.17
  A 0.93 0.91 8.2 0 1 130.50 234.33
  Q 130.41 231.54 129.16 229.00
  C 127.70 226.06 124.15 224.67 121.35 226.63
  C 118.84 228.37 118.19 231.11 117.77 234.13
  Q 117.69 234.69 117.11 234.74"
/>
<path stroke="#889298" vector-effect="non-scaling-stroke" d="
  M 302.36 233.36
  C 294.93 234.92 286.75 239.33 285.39 247.63
  C 283.93 256.62 289.33 264.31 298.16 266.41
  Q 303.95 267.79 309.91 268.81
  C 314.88 269.66 322.44 272.78 321.34 278.85
  C 320.39 284.10 313.53 287.25 308.44 286.35
  C 303.81 285.53 299.84 283.02 295.71 280.63
  Q 293.11 279.13 291.45 279.22
  C 286.88 279.47 285.02 284.02 287.38 287.83
  C 290.10 292.25 295.12 294.70 300.08 295.99
  Q 301.76 296.43 302.90 297.54
  Q 303.34 297.97 303.40 298.59
  C 303.70 301.82 304.11 304.90 306.82 307.09
  C 309.97 309.64 314.15 307.74 315.34 304.28
  Q 316.28 301.51 316.99 298.71
  A 3.09 3.07 -3.0 0 1 318.91 296.59
  C 326.15 293.96 331.59 290.35 333.50 282.32
  C 335.92 272.10 330.42 263.09 320.81 259.55
  Q 313.29 256.77 302.76 255.36
  C 298.44 254.78 294.79 251.16 299.51 247.40
  C 303.66 244.10 308.65 242.75 313.60 244.66
  Q 317.04 245.99 320.18 247.68
  C 326.67 251.17 332.33 242.52 325.43 237.94
  Q 321.39 235.25 316.79 233.81
  A 1.11 1.11 0.0 0 1 316.03 232.95
  C 315.42 229.67 314.10 226.20 310.75 225.27
  C 305.61 223.84 303.93 228.51 303.21 232.48
  Q 303.08 233.21 302.36 233.36"
/>
<path stroke="#889298" vector-effect="non-scaling-stroke" d="
  M 128.7212 464.2774
  A 36.36 36.23 78.4 0 0 156.9000 421.3749
  A 36.36 36.23 78.4 0 0 114.0988 393.0426
  A 36.36 36.23 78.4 0 0 85.9200 435.9451
  A 36.36 36.23 78.4 0 0 128.7212 464.2774"
/>
<path stroke="#889298" vector-effect="non-scaling-stroke" d="
  M 354.60 407.41
  C 349.22 398.35 339.55 393.16 328.94 393.11
  Q 297.05 392.95 219.02 393.03
  Q 200.83 393.05 191.92 407.13
  Q 191.26 408.17 192.50 408.17
  L 354.21 408.09
  A 0.45 0.45 0.0 0 0 354.60 407.41"
/>
<path stroke="#889298" vector-effect="non-scaling-stroke" d="
  M 360.73 422.44
  A 0.63 0.63 0.0 0 0 360.10 421.81
  L 186.88 421.81
  A 0.63 0.63 0.0 0 0 186.25 422.44
  L 186.25 434.26
  A 0.63 0.63 0.0 0 0 186.88 434.89
  L 360.10 434.89
  A 0.63 0.63 0.0 0 0 360.73 434.26
  L 360.73 422.44"
/>
<path stroke="#889298" vector-effect="non-scaling-stroke" d="
  M 206.52 461.60
  Q 210.95 463.45 217.99 463.44
  Q 272.72 463.36 329.73 463.33
  Q 336.75 463.33 340.75 461.87
  Q 350.13 458.46 355.41 448.88
  Q 355.79 448.19 355.00 448.24
  C 351.77 448.46 348.60 448.07 345.41 448.06
  Q 267.64 447.88 192.20 448.14
  A 0.52 0.52 0.0 0 0 191.76 448.93
  Q 197.16 457.70 206.52 461.60"
/>
<path stroke="#889298" vector-effect="non-scaling-stroke" d="
  M 125.87 414.13
  Q 126.05 409.53 126.07 404.82
  C 126.08 401.33 124.74 398.77 121.06 398.84
  Q 115.74 398.93 115.48 404.01
  Q 115.25 408.59 115.32 414.20
  A 0.50 0.49 -0.6 0 1 114.82 414.70
  Q 110.00 414.71 105.18 414.62
  Q 103.04 414.58 101.65 416.02
  Q 97.93 419.83 101.64 423.43
  C 104.04 425.77 110.98 425.06 114.58 424.86
  A 0.63 0.62 -1.7 0 1 115.25 425.48
  L 115.27 432.96
  A 0.56 0.56 0.0 0 1 114.71 433.52
  Q 109.82 433.53 104.73 433.54
  C 97.74 433.55 98.69 443.70 105.34 443.75
  Q 110.04 443.79 114.58 443.76
  A 0.65 0.65 0.0 0 1 115.24 444.38
  Q 115.43 448.42 115.41 452.98
  Q 115.40 454.98 116.16 456.38
  C 118.46 460.66 125.93 460.19 126.05 454.45
  Q 126.16 449.20 126.07 444.34
  Q 126.06 443.76 126.64 443.75
  Q 131.15 443.71 136.29 443.74
  Q 139.73 443.76 140.74 440.79
  C 142.53 435.51 139.82 433.25 134.83 433.44
  Q 130.75 433.59 126.61 433.39
  A 0.40 0.40 0.0 0 1 126.23 432.99
  L 126.23 425.00
  A 0.46 0.45 0.6 0 1 126.70 424.55
  C 130.38 424.62 136.48 425.30 139.45 423.17
  C 143.66 420.14 140.90 414.46 136.20 414.64
  Q 131.21 414.83 126.48 414.77
  Q 125.84 414.76 125.87 414.13"
/>
</g>
<path fill="#112430" d="
  M 35.56 30.94
  C 46.89 19.93 60.23 13.82 75.53 12.05
  Q 80.53 11.48 95.30 11.53
  Q 232.61 12.03 373.39 11.73
  C 398.07 11.68 420.84 28.91 432.05 49.85
  C 436.94 58.98 439.05 68.16 439.05 78.69
  Q 438.96 273.61 439.02 469.37
  C 439.03 497.75 422.29 522.35 396.68 533.76
  C 388.38 537.45 380.91 538.40 371.74 538.42
  Q 229.65 538.70 86.70 538.14
  Q 74.03 538.09 67.50 536.59
  C 42.34 530.79 21.86 509.03 15.77 483.61
  Q 14.30 477.45 14.23 467.77
  C 13.85 415.60 14.23 367.15 14.14 317.00
  Q 13.93 206.86 13.98 82.03
  Q 13.98 72.49 15.31 66.57
  Q 19.90 46.16 35.56 30.94
  Z
  M 407.44 83.08
  A 39.63 39.63 0.0 0 0 367.81 43.45
  L 84.97 43.45
  A 39.63 39.63 0.0 0 0 45.34 83.08
  L 45.34 467.04
  A 39.63 39.63 0.0 0 0 84.97 506.67
  L 367.81 506.67
  A 39.63 39.63 0.0 0 0 407.44 467.04
  L 407.44 83.08
  Z"
/>
<path fill="#ffffff" d="
  M 407.44 467.04
  A 39.63 39.63 0.0 0 1 367.81 506.67
  L 84.97 506.67
  A 39.63 39.63 0.0 0 1 45.34 467.04
  L 45.34 83.08
  A 39.63 39.63 0.0 0 1 84.97 43.45
  L 367.81 43.45
  A 39.63 39.63 0.0 0 1 407.44 83.08
  L 407.44 467.04
  Z
  M 373.54 162.89
  Q 375.96 163.11 377.82 161.33
  Q 386.88 152.68 391.16 141.19
  Q 393.05 136.13 393.55 131.03
  C 394.83 117.99 393.22 106.89 386.01 95.40
  Q 385.49 94.58 384.69 95.08
  Q 384.63 95.12 383.77 95.04
  C 379.01 76.19 365.84 65.35 346.40 65.39
  Q 230.12 65.57 109.16 65.47
  Q 99.66 65.47 94.99 66.71
  C 79.99 70.71 69.98 84.56 69.83 100.20
  Q 69.69 114.76 69.61 133.61
  C 69.57 143.43 71.31 151.11 76.79 158.74
  Q 86.24 171.92 103.00 171.92
  Q 231.50 171.97 350.00 172.11
  Q 364.14 172.13 373.54 162.89
  Z
  M 104.23 333.41
  Q 104.49 337.04 107.55 339.23
  Q 129.53 354.93 156.22 348.39
  Q 169.27 345.19 179.92 335.40
  Q 186.12 329.69 189.76 324.33
  Q 197.32 329.85 205.71 332.94
  Q 205.22 335.20 207.83 337.42
  Q 221.86 349.34 240.00 350.26
  Q 259.66 351.26 275.42 339.95
  Q 280.11 336.58 283.58 330.85
  L 289.73 333.77
  Q 290.33 334.53 290.69 335.18
  Q 291.11 335.96 291.65 336.58
  C 294.80 340.18 300.38 342.64 304.66 344.80
  Q 312.32 348.67 321.51 349.57
  Q 348.24 352.19 368.35 334.90
  Q 386.66 319.15 390.60 294.15
  Q 394.37 270.26 381.90 250.93
  Q 379.36 247.00 379.01 246.57
  Q 377.13 244.31 374.44 243.68
  Q 366.35 224.92 349.41 212.63
  Q 327.62 196.82 301.60 200.70
  Q 282.34 203.57 270.19 215.41
  Q 269.69 215.90 269.15 215.44
  C 246.64 196.03 215.55 195.18 190.96 211.17
  Q 184.58 215.32 177.11 223.98
  Q 176.72 224.43 176.30 224.00
  C 166.24 213.54 153.99 204.89 139.64 201.65
  Q 120.82 197.39 103.41 203.89
  C 83.83 211.19 68.60 228.16 62.24 247.57
  Q 56.02 266.58 61.32 286.76
  C 64.33 298.21 71.93 310.43 80.79 318.82
  Q 89.30 326.87 94.76 329.22
  Q 99.57 331.29 104.23 333.41
  Z
  M 104.05 481.32
  Q 111.98 490.72 121.23 494.23
  Q 130.44 497.73 141.01 497.04
  Q 150.92 496.38 160.01 492.28
  Q 176.18 484.97 185.32 468.68
  Q 195.28 478.12 208.74 480.77
  Q 211.00 484.99 215.69 488.30
  Q 223.98 494.15 232.38 495.91
  C 239.32 497.36 247.60 497.04 255.03 496.87
  C 265.42 496.63 276.23 496.93 286.34 496.89
  Q 309.64 496.80 330.78 497.03
  Q 344.50 497.18 350.66 495.87
  Q 370.80 491.59 382.04 475.59
  C 391.00 462.83 393.96 445.78 389.69 430.50
  Q 387.30 421.95 381.76 413.56
  Q 379.94 410.82 377.51 408.71
  Q 377.21 408.45 376.95 408.75
  Q 376.75 408.97 376.98 409.15
  Q 377.27 409.37 376.91 409.36
  Q 376.54 409.35 376.17 409.51
  C 369.10 391.99 354.90 379.05 336.44 375.06
  Q 331.30 373.95 327.00 373.95
  Q 277.61 373.93 230.99 373.78
  Q 216.64 373.74 211.07 374.77
  Q 184.65 379.67 172.66 404.84
  A 0.57 0.57 0.0 0 1 171.64 404.87
  C 168.69 399.41 165.27 394.07 160.82 389.70
  C 143.47 372.66 119.31 368.96 97.09 379.22
  Q 88.53 383.17 81.17 391.22
  Q 69.08 404.44 67.12 422.48
  C 65.00 441.92 72.82 459.85 87.85 472.33
  C 90.10 474.20 94.08 476.84 96.37 477.66
  Q 101.13 479.36 104.05 481.32
  Z"
/>
<path fill="#112430" d="
  M 383.77 95.04
  Q 386.04 115.44 384.28 137.00
  Q 383.05 152.00 373.54 162.89
  Q 364.14 172.13 350.00 172.11
  Q 231.50 171.97 103.00 171.92
  Q 86.24 171.92 76.79 158.74
  C 71.31 151.11 69.57 143.43 69.61 133.61
  Q 69.69 114.76 69.83 100.20
  C 69.98 84.56 79.99 70.71 94.99 66.71
  Q 99.66 65.47 109.16 65.47
  Q 230.12 65.57 346.40 65.39
  C 365.84 65.35 379.01 76.19 383.77 95.04
  Z
  M 104.48 94.16
  C 99.76 96.27 98.62 100.23 98.67 105.00
  Q 98.81 120.37 98.68 135.21
  C 98.64 140.34 102.88 143.94 107.87 143.92
  Q 188.34 143.59 271.59 143.84
  A 0.66 0.66 0.0 0 0 272.26 143.18
  L 272.00 93.51
  A 0.47 0.47 0.0 0 0 271.56 93.05
  Q 269.45 92.90 267.25 92.90
  Q 189.05 93.06 109.66 93.02
  Q 107.02 93.02 104.48 94.16
  Z
  M 285.95 94.23
  L 286.21 143.07
  A 1.10 1.10 0.0 0 0 287.31 144.17
  L 344.83 143.86
  A 10.71 10.68 89.7 0 0 355.46 133.10
  L 355.30 103.48
  A 10.71 10.68 89.7 0 0 344.57 92.82
  L 287.05 93.13
  A 1.10 1.10 0.0 0 0 285.95 94.23
  Z"
/>
<path fill="#ffffff" d="
  M 104.48 94.16
  Q 107.02 93.02 109.66 93.02
  Q 189.05 93.06 267.25 92.90
  Q 269.45 92.90 271.56 93.05
  A 0.47 0.47 0.0 0 1 272.00 93.51
  L 272.26 143.18
  A 0.66 0.66 0.0 0 1 271.59 143.84
  Q 188.34 143.59 107.87 143.92
  C 102.88 143.94 98.64 140.34 98.68 135.21
  Q 98.81 120.37 98.67 105.00
  C 98.62 100.23 99.76 96.27 104.48 94.16
  Z"
/>
<path fill="#ffffff" d="
  M 285.95 94.23
  A 1.10 1.10 0.0 0 1 287.05 93.13
  L 344.57 92.82
  A 10.71 10.68 89.7 0 1 355.30 103.48
  L 355.46 133.10
  A 10.71 10.68 89.7 0 1 344.83 143.86
  L 287.31 144.17
  A 1.10 1.10 0.0 0 1 286.21 143.07
  L 285.95 94.23
  Z
  M 340.8560 119.7277
  A 9.12 8.73 96.7 0 0 350.5904 111.6885
  A 9.12 8.73 96.7 0 0 342.9840 101.6123
  A 9.12 8.73 96.7 0 0 333.2496 109.6515
  A 9.12 8.73 96.7 0 0 340.8560 119.7277
  Z
  M 310.7040 119.6604
  A 9.05 8.79 96.0 0 0 320.3918 111.5788
  A 9.05 8.79 96.0 0 0 312.5960 101.6596
  A 9.05 8.79 96.0 0 0 302.9082 109.7412
  A 9.05 8.79 96.0 0 0 310.7040 119.6604
  Z
  M 310.9307 141.3623
  A 9.15 8.79 95.2 0 0 320.5138 133.0467
  A 9.15 8.79 95.2 0 0 312.5893 123.1377
  A 9.15 8.79 95.2 0 0 303.0062 131.4533
  A 9.15 8.79 95.2 0 0 310.9307 141.3623
  Z
  M 341.2354 141.4705
  A 9.16 8.68 94.6 0 0 350.6220 133.0361
  A 9.16 8.68 94.6 0 0 342.7046 123.2095
  A 9.16 8.68 94.6 0 0 333.3180 131.6439
  A 9.16 8.68 94.6 0 0 341.2354 141.4705
  Z"
/>
<path fill="#d6dee2" d="
  M 373.54 162.89
  Q 383.05 152.00 384.28 137.00
  Q 386.04 115.44 383.77 95.04
  Q 384.63 95.12 384.69 95.08
  Q 385.49 94.58 386.01 95.40
  C 393.22 106.89 394.83 117.99 393.55 131.03
  Q 393.05 136.13 391.16 141.19
  Q 386.88 152.68 377.82 161.33
  Q 375.96 163.11 373.54 162.89
  Z"
/>
<ellipse fill="#112430" cx="0.00" cy="0.00" transform="translate(341.92,110.67) rotate(96.7)" rx="9.12" ry="8.73"/>
<ellipse fill="#112430" cx="0.00" cy="0.00" transform="translate(311.65,110.66) rotate(96.0)" rx="9.05" ry="8.79"/>
<ellipse fill="#112430" cx="0.00" cy="0.00" transform="translate(311.76,132.25) rotate(95.2)" rx="9.15" ry="8.79"/>
<ellipse fill="#112430" cx="0.00" cy="0.00" transform="translate(341.97,132.34) rotate(94.6)" rx="9.16" ry="8.68"/>
<path fill="#112430" d="
  M 374.44 243.68
  Q 376.55 249.39 377.16 251.34
  C 382.63 268.89 378.11 289.70 368.35 305.47
  C 351.51 332.69 319.99 342.04 289.73 333.77
  L 283.58 330.85
  Q 275.56 327.21 269.34 321.67
  Q 268.86 321.25 268.41 321.70
  Q 257.64 332.52 240.02 335.50
  C 228.53 337.44 217.05 336.22 205.71 332.94
  Q 197.32 329.85 189.76 324.33
  Q 183.06 319.41 177.37 313.24
  A 0.67 0.66 -46.1 0 0 176.37 313.26
  C 169.07 321.99 160.50 328.71 149.70 332.46
  Q 127.21 340.28 104.23 333.41
  Q 99.57 331.29 94.76 329.22
  Q 89.30 326.87 80.79 318.82
  C 71.93 310.43 64.33 298.21 61.32 286.76
  Q 56.02 266.58 62.24 247.57
  C 68.60 228.16 83.83 211.19 103.41 203.89
  Q 120.82 197.39 139.64 201.65
  C 153.99 204.89 166.24 213.54 176.30 224.00
  Q 176.72 224.43 177.11 223.98
  Q 184.58 215.32 190.96 211.17
  C 215.55 195.18 246.64 196.03 269.15 215.44
  Q 269.69 215.90 270.19 215.41
  Q 282.34 203.57 301.60 200.70
  Q 327.62 196.82 349.41 212.63
  Q 366.35 224.92 374.44 243.68
  Z
  M 133.97 220.05
  C 106.72 214.11 81.64 235.99 78.45 262.74
  Q 75.68 286.00 90.95 301.90
  C 108.82 320.48 135.78 323.01 155.69 306.13
  Q 161.62 301.10 165.09 294.15
  A 1.78 1.76 47.3 0 0 165.14 292.68
  C 163.66 289.09 161.91 285.13 161.21 281.26
  Q 157.64 261.55 165.38 245.02
  A 1.77 1.76 42.8 0 0 165.31 243.39
  C 158.71 231.81 147.08 222.91 133.97 220.05
  Z
  M 360.28 268.45
  A 49.16 49.16 0.0 0 0 311.12 219.29
  A 49.16 49.16 0.0 0 0 261.96 268.45
  A 49.16 49.16 0.0 0 0 311.12 317.61
  A 49.16 49.16 0.0 0 0 360.28 268.45
  Z
  M 203.18 260.89
  A 0.84 0.83 7.4 0 1 202.37 259.84
  C 205.40 248.49 212.23 238.64 224.62 236.56
  Q 235.65 234.71 245.13 242.46
  A 0.90 0.90 0.0 0 0 246.53 242.12
  Q 249.49 235.12 253.97 229.14
  A 1.13 1.13 0.0 0 0 253.62 227.48
  C 248.91 224.84 243.71 222.07 238.52 220.85
  Q 218.79 216.23 203.44 227.85
  Q 187.77 239.71 185.31 260.04
  Q 185.23 260.72 184.55 260.72
  L 180.18 260.74
  A 0.95 0.95 0.0 0 0 179.24 261.70
  L 179.42 272.60
  Q 179.45 274.25 181.10 274.26
  L 184.21 274.28
  Q 184.88 274.29 184.95 274.95
  Q 187.12 295.76 201.53 307.32
  C 217.31 319.98 237.75 320.55 254.57 309.18
  Q 255.09 308.82 254.72 308.31
  Q 249.76 301.47 246.29 293.27
  Q 245.99 292.57 245.50 293.15
  Q 240.53 298.98 231.57 300.29
  C 216.16 302.56 204.37 288.58 201.81 275.01
  A 0.68 0.67 84.7 0 1 202.47 274.21
  L 241.25 274.20
  A 0.88 0.88 0.0 0 0 242.13 273.32
  L 242.20 261.25
  Q 242.20 260.79 241.75 260.79
  L 203.18 260.89
  Z"
/>
<path fill="#ffffff" d="
  M 133.97 220.05
  C 147.08 222.91 158.71 231.81 165.31 243.39
  A 1.77 1.76 42.8 0 1 165.38 245.02
  Q 157.64 261.55 161.21 281.26
  C 161.91 285.13 163.66 289.09 165.14 292.68
  A 1.78 1.76 47.3 0 1 165.09 294.15
  Q 161.62 301.10 155.69 306.13
  C 135.78 323.01 108.82 320.48 90.95 301.90
  Q 75.68 286.00 78.45 262.74
  C 81.64 235.99 106.72 214.11 133.97 220.05
  Z
  M 117.11 234.74
  C 108.27 235.40 99.04 242.89 99.32 252.25
  C 99.64 263.02 107.52 268.64 117.49 270.06
  C 122.72 270.80 136.56 271.52 136.18 279.56
  C 135.98 283.57 131.84 286.10 128.27 286.63
  Q 121.54 287.63 115.90 284.28
  C 114.05 283.18 112.09 282.14 110.27 280.99
  C 107.24 279.09 103.81 279.23 101.96 282.48
  C 97.41 290.47 111.33 295.81 117.16 296.99
  A 1.63 1.63 0.0 0 1 118.44 298.34
  C 118.74 300.42 118.44 302.76 119.36 304.65
  Q 121.08 308.16 124.66 307.93
  C 129.57 307.60 130.58 302.64 131.21 298.56
  A 1.81 1.80 -3.3 0 1 132.52 297.10
  Q 133.82 296.76 135.22 296.34
  C 143.63 293.81 148.83 286.94 148.66 278.26
  C 148.45 267.62 139.36 260.43 129.22 259.16
  C 124.59 258.57 118.87 259.21 114.88 256.68
  Q 109.63 253.34 114.20 248.87
  C 118.16 244.99 123.23 244.06 128.50 246.36
  Q 132.92 248.28 137.19 250.08
  C 143.88 252.90 146.09 244.79 142.49 240.57
  C 139.84 237.45 135.10 236.44 131.14 235.17
  A 0.93 0.91 8.2 0 1 130.50 234.33
  Q 130.41 231.54 129.16 229.00
  C 127.70 226.06 124.15 224.67 121.35 226.63
  C 118.84 228.37 118.19 231.11 117.77 234.13
  Q 117.69 234.69 117.11 234.74
  Z"
/>
<path fill="#ffffff" d="
  M 360.28 268.45
  A 49.16 49.16 0.0 0 1 311.12 317.61
  A 49.16 49.16 0.0 0 1 261.96 268.45
  A 49.16 49.16 0.0 0 1 311.12 219.29
  A 49.16 49.16 0.0 0 1 360.28 268.45
  Z
  M 302.36 233.36
  C 294.93 234.92 286.75 239.33 285.39 247.63
  C 283.93 256.62 289.33 264.31 298.16 266.41
  Q 303.95 267.79 309.91 268.81
  C 314.88 269.66 322.44 272.78 321.34 278.85
  C 320.39 284.10 313.53 287.25 308.44 286.35
  C 303.81 285.53 299.84 283.02 295.71 280.63
  Q 293.11 279.13 291.45 279.22
  C 286.88 279.47 285.02 284.02 287.38 287.83
  C 290.10 292.25 295.12 294.70 300.08 295.99
  Q 301.76 296.43 302.90 297.54
  Q 303.34 297.97 303.40 298.59
  C 303.70 301.82 304.11 304.90 306.82 307.09
  C 309.97 309.64 314.15 307.74 315.34 304.28
  Q 316.28 301.51 316.99 298.71
  A 3.09 3.07 -3.0 0 1 318.91 296.59
  C 326.15 293.96 331.59 290.35 333.50 282.32
  C 335.92 272.10 330.42 263.09 320.81 259.55
  Q 313.29 256.77 302.76 255.36
  C 298.44 254.78 294.79 251.16 299.51 247.40
  C 303.66 244.10 308.65 242.75 313.60 244.66
  Q 317.04 245.99 320.18 247.68
  C 326.67 251.17 332.33 242.52 325.43 237.94
  Q 321.39 235.25 316.79 233.81
  A 1.11 1.11 0.0 0 1 316.03 232.95
  C 315.42 229.67 314.10 226.20 310.75 225.27
  C 305.61 223.84 303.93 228.51 303.21 232.48
  Q 303.08 233.21 302.36 233.36
  Z"
/>
<path fill="#ffffff" d="
  M 203.18 260.89
  L 241.75 260.79
  Q 242.20 260.79 242.20 261.25
  L 242.13 273.32
  A 0.88 0.88 0.0 0 1 241.25 274.20
  L 202.47 274.21
  A 0.68 0.67 84.7 0 0 201.81 275.01
  C 204.37 288.58 216.16 302.56 231.57 300.29
  Q 240.53 298.98 245.50 293.15
  Q 245.99 292.57 246.29 293.27
  Q 249.76 301.47 254.72 308.31
  Q 255.09 308.82 254.57 309.18
  C 237.75 320.55 217.31 319.98 201.53 307.32
  Q 187.12 295.76 184.95 274.95
  Q 184.88 274.29 184.21 274.28
  L 181.10 274.26
  Q 179.45 274.25 179.42 272.60
  L 179.24 261.70
  A 0.95 0.95 0.0 0 1 180.18 260.74
  L 184.55 260.72
  Q 185.23 260.72 185.31 260.04
  Q 187.77 239.71 203.44 227.85
  Q 218.79 216.23 238.52 220.85
  C 243.71 222.07 248.91 224.84 253.62 227.48
  A 1.13 1.13 0.0 0 1 253.97 229.14
  Q 249.49 235.12 246.53 242.12
  A 0.90 0.90 0.0 0 1 245.13 242.46
  Q 235.65 234.71 224.62 236.56
  C 212.23 238.64 205.40 248.49 202.37 259.84
  A 0.84 0.83 7.4 0 0 203.18 260.89
  Z"
/>
<path fill="#112430" d="
  M 303.21 232.48
  C 303.93 228.51 305.61 223.84 310.75 225.27
  C 314.10 226.20 315.42 229.67 316.03 232.95
  A 1.11 1.11 0.0 0 0 316.79 233.81
  Q 321.39 235.25 325.43 237.94
  C 332.33 242.52 326.67 251.17 320.18 247.68
  Q 317.04 245.99 313.60 244.66
  C 308.65 242.75 303.66 244.10 299.51 247.40
  C 294.79 251.16 298.44 254.78 302.76 255.36
  Q 313.29 256.77 320.81 259.55
  C 330.42 263.09 335.92 272.10 333.50 282.32
  C 331.59 290.35 326.15 293.96 318.91 296.59
  A 3.09 3.07 -3.0 0 0 316.99 298.71
  Q 316.28 301.51 315.34 304.28
  C 314.15 307.74 309.97 309.64 306.82 307.09
  C 304.11 304.90 303.70 301.82 303.40 298.59
  Q 303.34 297.97 302.90 297.54
  Q 301.76 296.43 300.08 295.99
  C 295.12 294.70 290.10 292.25 287.38 287.83
  C 285.02 284.02 286.88 279.47 291.45 279.22
  Q 293.11 279.13 295.71 280.63
  C 299.84 283.02 303.81 285.53 308.44 286.35
  C 313.53 287.25 320.39 284.10 321.34 278.85
  C 322.44 272.78 314.88 269.66 309.91 268.81
  Q 303.95 267.79 298.16 266.41
  C 289.33 264.31 283.93 256.62 285.39 247.63
  C 286.75 239.33 294.93 234.92 302.36 233.36
  Q 303.08 233.21 303.21 232.48
  Z"
/>
<path fill="#112430" d="
  M 117.77 234.13
  C 118.19 231.11 118.84 228.37 121.35 226.63
  C 124.15 224.67 127.70 226.06 129.16 229.00
  Q 130.41 231.54 130.50 234.33
  A 0.93 0.91 8.2 0 0 131.14 235.17
  C 135.10 236.44 139.84 237.45 142.49 240.57
  C 146.09 244.79 143.88 252.90 137.19 250.08
  Q 132.92 248.28 128.50 246.36
  C 123.23 244.06 118.16 244.99 114.20 248.87
  Q 109.63 253.34 114.88 256.68
  C 118.87 259.21 124.59 258.57 129.22 259.16
  C 139.36 260.43 148.45 267.62 148.66 278.26
  C 148.83 286.94 143.63 293.81 135.22 296.34
  Q 133.82 296.76 132.52 297.10
  A 1.81 1.80 -3.3 0 0 131.21 298.56
  C 130.58 302.64 129.57 307.60 124.66 307.93
  Q 121.08 308.16 119.36 304.65
  C 118.44 302.76 118.74 300.42 118.44 298.34
  A 1.63 1.63 0.0 0 0 117.16 296.99
  C 111.33 295.81 97.41 290.47 101.96 282.48
  C 103.81 279.23 107.24 279.09 110.27 280.99
  C 112.09 282.14 114.05 283.18 115.90 284.28
  Q 121.54 287.63 128.27 286.63
  C 131.84 286.10 135.98 283.57 136.18 279.56
  C 136.56 271.52 122.72 270.80 117.49 270.06
  C 107.52 268.64 99.64 263.02 99.32 252.25
  C 99.04 242.89 108.27 235.40 117.11 234.74
  Q 117.69 234.69 117.77 234.13
  Z"
/>
<path fill="#d6dee2" d="
  M 374.44 243.68
  Q 377.13 244.31 379.01 246.57
  Q 379.36 247.00 381.90 250.93
  Q 394.37 270.26 390.60 294.15
  Q 386.66 319.15 368.35 334.90
  Q 348.24 352.19 321.51 349.57
  Q 312.32 348.67 304.66 344.80
  C 300.38 342.64 294.80 340.18 291.65 336.58
  Q 291.11 335.96 290.69 335.18
  Q 290.33 334.53 289.73 333.77
  C 319.99 342.04 351.51 332.69 368.35 305.47
  C 378.11 289.70 382.63 268.89 377.16 251.34
  Q 376.55 249.39 374.44 243.68
  Z"
/>
<path fill="#d6dee2" d="
  M 189.76 324.33
  Q 186.12 329.69 179.92 335.40
  Q 169.27 345.19 156.22 348.39
  Q 129.53 354.93 107.55 339.23
  Q 104.49 337.04 104.23 333.41
  Q 127.21 340.28 149.70 332.46
  C 160.50 328.71 169.07 321.99 176.37 313.26
  A 0.67 0.66 -46.1 0 1 177.37 313.24
  Q 183.06 319.41 189.76 324.33
  Z"
/>
<path fill="#d6dee2" d="
  M 283.58 330.85
  Q 280.11 336.58 275.42 339.95
  Q 259.66 351.26 240.00 350.26
  Q 221.86 349.34 207.83 337.42
  Q 205.22 335.20 205.71 332.94
  C 217.05 336.22 228.53 337.44 240.02 335.50
  Q 257.64 332.52 268.41 321.70
  Q 268.86 321.25 269.34 321.67
  Q 275.56 327.21 283.58 330.85
  Z"
/>
<path fill="#112430" d="
  M 376.17 409.51
  Q 385.29 437.27 369.69 461.18
  Q 359.65 476.56 342.66 480.30
  Q 336.39 481.68 322.75 481.55
  C 288.57 481.23 254.42 481.30 220.25 481.75
  Q 215.39 481.81 208.74 480.77
  Q 195.28 478.12 185.32 468.68
  C 180.21 463.71 174.87 457.81 172.37 451.01
  Q 172.17 450.47 171.93 450.99
  C 165.05 465.81 154.89 475.92 138.76 480.92
  Q 127.47 484.42 114.90 482.89
  Q 110.14 482.31 104.05 481.32
  Q 101.13 479.36 96.37 477.66
  C 94.08 476.84 90.10 474.20 87.85 472.33
  C 72.82 459.85 65.00 441.92 67.12 422.48
  Q 69.08 404.44 81.17 391.22
  Q 88.53 383.17 97.09 379.22
  C 119.31 368.96 143.47 372.66 160.82 389.70
  C 165.27 394.07 168.69 399.41 171.64 404.87
  A 0.57 0.57 0.0 0 0 172.66 404.84
  Q 184.65 379.67 211.07 374.77
  Q 216.64 373.74 230.99 373.78
  Q 277.61 373.93 327.00 373.95
  Q 331.30 373.95 336.44 375.06
  C 354.90 379.05 369.10 391.99 376.17 409.51
  Z
  M 128.7212 464.2774
  A 36.36 36.23 78.4 0 0 156.9000 421.3749
  A 36.36 36.23 78.4 0 0 114.0988 393.0426
  A 36.36 36.23 78.4 0 0 85.9200 435.9451
  A 36.36 36.23 78.4 0 0 128.7212 464.2774
  Z
  M 354.60 407.41
  C 349.22 398.35 339.55 393.16 328.94 393.11
  Q 297.05 392.95 219.02 393.03
  Q 200.83 393.05 191.92 407.13
  Q 191.26 408.17 192.50 408.17
  L 354.21 408.09
  A 0.45 0.45 0.0 0 0 354.60 407.41
  Z
  M 360.73 422.44
  A 0.63 0.63 0.0 0 0 360.10 421.81
  L 186.88 421.81
  A 0.63 0.63 0.0 0 0 186.25 422.44
  L 186.25 434.26
  A 0.63 0.63 0.0 0 0 186.88 434.89
  L 360.10 434.89
  A 0.63 0.63 0.0 0 0 360.73 434.26
  L 360.73 422.44
  Z
  M 206.52 461.60
  Q 210.95 463.45 217.99 463.44
  Q 272.72 463.36 329.73 463.33
  Q 336.75 463.33 340.75 461.87
  Q 350.13 458.46 355.41 448.88
  Q 355.79 448.19 355.00 448.24
  C 351.77 448.46 348.60 448.07 345.41 448.06
  Q 267.64 447.88 192.20 448.14
  A 0.52 0.52 0.0 0 0 191.76 448.93
  Q 197.16 457.70 206.52 461.60
  Z"
/>
<path fill="#ffffff" d="
  M 128.7212 464.2774
  A 36.36 36.23 78.4 0 1 85.9200 435.9451
  A 36.36 36.23 78.4 0 1 114.0988 393.0426
  A 36.36 36.23 78.4 0 1 156.9000 421.3749
  A 36.36 36.23 78.4 0 1 128.7212 464.2774
  Z
  M 125.87 414.13
  Q 126.05 409.53 126.07 404.82
  C 126.08 401.33 124.74 398.77 121.06 398.84
  Q 115.74 398.93 115.48 404.01
  Q 115.25 408.59 115.32 414.20
  A 0.50 0.49 -0.6 0 1 114.82 414.70
  Q 110.00 414.71 105.18 414.62
  Q 103.04 414.58 101.65 416.02
  Q 97.93 419.83 101.64 423.43
  C 104.04 425.77 110.98 425.06 114.58 424.86
  A 0.63 0.62 -1.7 0 1 115.25 425.48
  L 115.27 432.96
  A 0.56 0.56 0.0 0 1 114.71 433.52
  Q 109.82 433.53 104.73 433.54
  C 97.74 433.55 98.69 443.70 105.34 443.75
  Q 110.04 443.79 114.58 443.76
  A 0.65 0.65 0.0 0 1 115.24 444.38
  Q 115.43 448.42 115.41 452.98
  Q 115.40 454.98 116.16 456.38
  C 118.46 460.66 125.93 460.19 126.05 454.45
  Q 126.16 449.20 126.07 444.34
  Q 126.06 443.76 126.64 443.75
  Q 131.15 443.71 136.29 443.74
  Q 139.73 443.76 140.74 440.79
  C 142.53 435.51 139.82 433.25 134.83 433.44
  Q 130.75 433.59 126.61 433.39
  A 0.40 0.40 0.0 0 1 126.23 432.99
  L 126.23 425.00
  A 0.46 0.45 0.6 0 1 126.70 424.55
  C 130.38 424.62 136.48 425.30 139.45 423.17
  C 143.66 420.14 140.90 414.46 136.20 414.64
  Q 131.21 414.83 126.48 414.77
  Q 125.84 414.76 125.87 414.13
  Z"
/>
<path fill="#ffffff" d="
  M 328.94 393.11
  C 339.55 393.16 349.22 398.35 354.60 407.41
  A 0.45 0.45 0.0 0 1 354.21 408.09
  L 192.50 408.17
  Q 191.26 408.17 191.92 407.13
  Q 200.83 393.05 219.02 393.03
  Q 297.05 392.95 328.94 393.11
  Z"
/>
<path fill="#112430" d="
  M 126.48 414.77
  Q 131.21 414.83 136.20 414.64
  C 140.90 414.46 143.66 420.14 139.45 423.17
  C 136.48 425.30 130.38 424.62 126.70 424.55
  A 0.46 0.45 0.6 0 0 126.23 425.00
  L 126.23 432.99
  A 0.40 0.40 0.0 0 0 126.61 433.39
  Q 130.75 433.59 134.83 433.44
  C 139.82 433.25 142.53 435.51 140.74 440.79
  Q 139.73 443.76 136.29 443.74
  Q 131.15 443.71 126.64 443.75
  Q 126.06 443.76 126.07 444.34
  Q 126.16 449.20 126.05 454.45
  C 125.93 460.19 118.46 460.66 116.16 456.38
  Q 115.40 454.98 115.41 452.98
  Q 115.43 448.42 115.24 444.38
  A 0.65 0.65 0.0 0 0 114.58 443.76
  Q 110.04 443.79 105.34 443.75
  C 98.69 443.70 97.74 433.55 104.73 433.54
  Q 109.82 433.53 114.71 433.52
  A 0.56 0.56 0.0 0 0 115.27 432.96
  L 115.25 425.48
  A 0.63 0.62 -1.7 0 0 114.58 424.86
  C 110.98 425.06 104.04 425.77 101.64 423.43
  Q 97.93 419.83 101.65 416.02
  Q 103.04 414.58 105.18 414.62
  Q 110.00 414.71 114.82 414.70
  A 0.50 0.49 -0.6 0 0 115.32 414.20
  Q 115.25 408.59 115.48 404.01
  Q 115.74 398.93 121.06 398.84
  C 124.74 398.77 126.08 401.33 126.07 404.82
  Q 126.05 409.53 125.87 414.13
  Q 125.84 414.76 126.48 414.77
  Z"
/>
<path fill="#d6dee2" d="
  M 208.74 480.77
  Q 215.39 481.81 220.25 481.75
  C 254.42 481.30 288.57 481.23 322.75 481.55
  Q 336.39 481.68 342.66 480.30
  Q 359.65 476.56 369.69 461.18
  Q 385.29 437.27 376.17 409.51
  Q 376.54 409.35 376.91 409.36
  Q 377.27 409.37 376.98 409.15
  Q 376.75 408.97 376.95 408.75
  Q 377.21 408.45 377.51 408.71
  Q 379.94 410.82 381.76 413.56
  Q 387.30 421.95 389.69 430.50
  C 393.96 445.78 391.00 462.83 382.04 475.59
  Q 370.80 491.59 350.66 495.87
  Q 344.50 497.18 330.78 497.03
  Q 309.64 496.80 286.34 496.89
  C 276.23 496.93 265.42 496.63 255.03 496.87
  C 247.60 497.04 239.32 497.36 232.38 495.91
  Q 223.98 494.15 215.69 488.30
  Q 211.00 484.99 208.74 480.77
  Z"
/>
<rect fill="#ffffff" x="186.25" y="421.81" width="174.48" height="13.08" rx="0.63"/>
<path fill="#ffffff" d="
  M 206.52 461.60
  Q 197.16 457.70 191.76 448.93
  A 0.52 0.52 0.0 0 1 192.20 448.14
  Q 267.64 447.88 345.41 448.06
  C 348.60 448.07 351.77 448.46 355.00 448.24
  Q 355.79 448.19 355.41 448.88
  Q 350.13 458.46 340.75 461.87
  Q 336.75 463.33 329.73 463.33
  Q 272.72 463.36 217.99 463.44
  Q 210.95 463.45 206.52 461.60
  Z"
/>
<path fill="#d6dee2" d="
  M 185.32 468.68
  Q 176.18 484.97 160.01 492.28
  Q 150.92 496.38 141.01 497.04
  Q 130.44 497.73 121.23 494.23
  Q 111.98 490.72 104.05 481.32
  Q 110.14 482.31 114.90 482.89
  Q 127.47 484.42 138.76 480.92
  C 154.89 475.92 165.05 465.81 171.93 450.99
  Q 172.17 450.47 172.37 451.01
  C 174.87 457.81 180.21 463.71 185.32 468.68
  Z"
/>
</svg>
